<svg width="102" height="105" viewBox="0 0 102 105" fill="none" xmlns="http://www.w3.org/2000/svg">
<path d="M101.162 52.4508C101.162 81.1052 78.614 104.309 50.8309 104.309C23.0478 104.309 0.5 81.1052 0.5 52.4508C0.5 23.7963 23.0478 0.592773 50.8309 0.592773C78.614 0.592773 101.162 23.7963 101.162 52.4508Z" stroke="#F8BA04"/>
<path d="M47.8754 51.7104C47.4589 51.7104 47.1974 51.9428 47.1974 52.3128V55.4454C47.1974 55.8155 47.4589 56.0478 47.8754 56.0478C48.2918 56.0478 48.5533 55.8155 48.5533 55.4454V52.3128C48.5533 51.9428 48.2918 51.7104 47.8754 51.7104ZM47.8754 58.1321C47.4589 58.1321 47.1974 58.3645 47.1974 58.7346V62.4936C47.1974 62.8637 47.4589 63.096 47.8754 63.096C48.2918 63.096 48.5533 62.8637 48.5533 62.4936V58.7346C48.5533 58.4122 48.2592 58.1321 47.8754 58.1321ZM47.8754 65.2587C47.4589 65.2587 47.1974 65.491 47.1974 65.8611V68.9937C47.1974 69.3637 47.4589 69.5961 47.8754 69.5961C48.2918 69.5961 48.5533 69.3637 48.5533 68.9937V65.8611C48.5533 65.491 48.2918 65.2587 47.8754 65.2587ZM39.7401 51.7104C39.3236 51.7104 39.0621 51.9428 39.0621 52.3128V55.4454C39.0621 55.8155 39.3236 56.0478 39.7401 56.0478C40.1566 56.0478 40.418 55.8155 40.418 55.4454V52.3128C40.418 51.9428 40.1566 51.7104 39.7401 51.7104ZM39.7401 58.1321C39.3236 58.1321 39.0621 58.3645 39.0621 58.7346V62.4936C39.0621 62.8637 39.3236 63.096 39.7401 63.096C40.1566 63.096 40.418 62.8637 40.418 62.4936V58.7346C40.418 58.4122 40.1239 58.1321 39.7401 58.1321ZM39.7401 65.2587C39.3236 65.2587 39.0621 65.491 39.0621 65.8611V68.9937C39.0621 69.3637 39.3236 69.5961 39.7401 69.5961C40.1566 69.5961 40.418 69.3637 40.418 68.9937V65.8611C40.418 65.491 40.1566 65.2587 39.7401 65.2587ZM31.6048 51.7104C31.1883 51.7104 30.9269 51.9428 30.9269 52.3128V55.4454C30.9269 55.8155 31.1883 56.0478 31.6048 56.0478C32.0213 56.0478 32.2828 55.8155 32.2828 55.4454V52.3128C32.2828 51.9428 32.0213 51.7104 31.6048 51.7104ZM31.6048 58.1321C31.1883 58.1321 30.9269 58.3645 30.9269 58.7346V62.4936C30.9269 62.8637 31.1883 63.096 31.6048 63.096C32.0213 63.096 32.2828 62.8637 32.2828 62.4936V58.7346C32.2828 58.4122 31.9886 58.1321 31.6048 58.1321ZM31.6048 65.2587C31.1883 65.2587 30.9269 65.491 30.9269 65.8611V68.9937C30.9269 69.3637 31.1883 69.5961 31.6048 69.5961C32.0213 69.5961 32.2828 69.3637 32.2828 68.9937V65.8611C32.2828 65.491 32.0213 65.2587 31.6048 65.2587ZM67.8542 38.2164C67.8542 33.3041 63.2743 29.2344 57.7462 29.2344H49.9905C44.6938 29.2344 40.3188 32.8659 39.8818 37.5265L39.6938 37.6918C33.7134 38.0769 28.9462 42.3129 28.5129 47.6271L28.3594 47.7893C28.1022 47.8465 27.8965 48.0841 27.8965 48.3188C27.8965 48.6889 28.158 48.9212 28.5744 48.9212H52.4582C52.8747 48.9212 53.1362 48.6889 53.1362 48.3188C53.1362 48.0841 52.9305 47.8465 52.6733 47.7893L52.5198 47.6271C52.085 42.2953 47.3878 38.0756 41.427 37.6918L41.2394 37.4932C41.6937 33.537 45.5093 30.4392 49.9905 30.4392H57.7462C62.5597 30.4392 66.4984 33.9143 66.4984 38.2164V75.2588C66.4984 75.6288 66.7598 75.8612 67.1763 75.8612C67.5928 75.8612 67.8542 75.6288 67.8542 75.2588V38.2164ZM40.4723 38.8188C46.0876 38.8188 50.7099 42.612 51.1627 47.5209L50.96 47.7164H30.0727L29.87 47.5209C30.3217 42.624 34.9313 38.8188 40.4723 38.8188Z" fill="#F8BA04"/>
</svg>
