<svg width="103" height="105" viewBox="0 0 103 105" fill="none" xmlns="http://www.w3.org/2000/svg">
<g clip-path="url(#clip0_276_383)">
<path d="M102.156 52.4518C102.156 81.1062 79.6081 104.31 51.825 104.31C24.0419 104.31 1.49414 81.1062 1.49414 52.4518C1.49414 23.7973 24.0419 0.59375 51.825 0.59375C79.6081 0.59375 102.156 23.7973 102.156 52.4518Z" stroke="#F8BA04"/>
<path fill-rule="evenodd" clip-rule="evenodd" d="M32.587 30.922C31.6369 30.922 30.8666 31.7471 30.8666 32.765V72.1382C30.8666 73.1561 31.6369 73.9812 32.587 73.9812H69.3417C70.2918 73.9812 71.0621 73.1561 71.0621 72.1382V32.765C71.0621 31.7471 70.2918 30.922 69.3417 30.922H32.587ZM32.587 29.4141H69.3417C71.0693 29.4141 72.4697 30.9143 72.4697 32.765V72.1382C72.4697 73.9889 71.0693 75.4891 69.3417 75.4891H32.587C30.8595 75.4891 29.459 73.9889 29.459 72.1382V32.765C29.459 30.9143 30.8595 29.4141 32.587 29.4141ZM59.24 46.9378C59.24 49.8244 58.3206 52.0446 56.4817 53.5984C54.6428 55.1523 52.0119 55.9292 48.589 55.9292H45.4574V67.144H42.3622V38.6291H49.2626C55.9142 38.6291 59.24 41.3986 59.24 46.9378ZM45.4574 53.0816H48.243C50.9862 53.0816 52.9708 52.607 54.1967 51.6578C55.4226 50.7086 56.0356 49.1873 56.0356 47.0938C56.0356 45.2084 55.459 43.8042 54.3059 42.881C53.1528 41.9578 51.3564 41.4962 48.9167 41.4962H45.4574V53.0816Z" fill="#F8BA04"/>
</g>
<defs>
<clipPath id="clip0_276_383">
<rect width="101.662" height="104.716" fill="white" transform="translate(0.994141 0.09375)"/>
</clipPath>
</defs>
</svg>
