<svg width="103" height="106" viewBox="0 0 103 106" fill="none" xmlns="http://www.w3.org/2000/svg">
<path d="M101.597 53.124C101.597 81.6933 79.0196 104.831 51.1958 104.831C23.372 104.831 0.794922 81.6933 0.794922 53.124C0.794922 24.5547 23.372 1.4165 51.1958 1.4165C79.0196 1.4165 101.597 24.5547 101.597 53.124Z" stroke="#F8BA04"/>
<path d="M67.996 76.0955C70.2357 76.0955 72.0511 74.2402 72.0511 71.9518L72.1308 49.0286C74.166 48.5577 75.6117 46.7109 75.6144 44.5789L75.6258 42.172C75.6276 41.7959 75.5303 41.4264 75.3443 41.1023L70.4019 32.4926C70.3112 32.3318 70.141 32.2352 69.9559 32.2415H33.3724C33.2175 32.2415 33.0718 32.316 32.9809 32.4397L27.1357 40.9423C26.8936 41.2944 26.7637 41.7148 26.7637 42.1457V44.4573C26.7664 46.5895 28.2121 48.4363 30.327 49.0095V71.9519C30.3261 74.1943 32.0711 76.0307 34.2647 76.0955H67.996ZM63.169 74.9861L63.0668 75.0915L52.9873 74.9865V61.7553C52.9873 60.0212 54.3626 58.6156 56.0589 58.6156H60.038C61.7343 58.6156 63.1096 60.0212 63.1096 61.7548L63.169 74.9861ZM68.0554 75.0915L64.093 74.9865V61.7553C64.093 59.4669 62.2776 57.6116 60.038 57.6116H56.0589C53.8193 57.6116 52.0039 59.4669 52.0039 61.7553L51.9017 75.0915H34.2632C32.5669 75.0915 31.1916 73.6859 31.1916 71.9518L31.2905 49.0867C32.6772 49.0405 33.9643 48.339 34.9539 47.2156C35.7077 49.4923 37.7251 51.0842 40.0713 51.2536C42.4175 51.423 44.6339 50.1368 45.8766 47.9925C46.8517 50.0503 48.8922 51.3573 51.1296 51.3573C53.3671 51.3573 55.4076 50.0503 56.5664 47.9922C57.6098 50.178 59.8473 51.4976 62.2214 51.3271C64.5955 51.1566 66.6304 49.5303 67.5434 47.1866C68.3655 48.3152 69.6507 48.9938 71.1271 49.1309V71.9518C71.1272 72.7956 70.7951 73.6039 70.2056 74.1945C69.6304 74.7709 68.8574 75.0926 68.0554 74.897V75.0915ZM28.0207 41.3672L33.6693 33.1849L69.6877 33.2367L74.3526 41.42C74.5349 41.7398 74.631 42.1036 74.631 42.474V44.4575C74.631 46.4429 73.0563 48.0523 71.114 48.0523C69.1716 48.0523 67.5969 46.4429 67.5969 44.4575C67.5969 44.1803 67.3769 43.9554 67.1052 43.9554C66.8336 43.9554 66.6135 44.1803 66.6135 44.4555C66.6176 44.6741 66.6369 44.8922 66.6625 45.1712C66.6327 45.2338 66.616 45.3022 66.6135 45.3679C66.6135 48.1076 64.4405 50.3283 61.7602 50.3283C59.0799 50.3283 56.9069 48.1076 56.9069 45.3679C56.9069 45.0907 56.6869 44.8659 56.4152 44.8659C56.1436 44.8659 55.9236 45.0907 55.9236 45.3679C55.9236 48.1076 53.7506 50.3283 51.0703 50.3283C48.39 50.3283 46.217 48.1076 46.217 45.3679C46.217 45.0907 45.9969 44.8659 45.7253 44.8659C45.4536 44.8659 45.2336 45.0907 45.2336 45.3679C45.2336 48.1076 43.0606 50.3283 40.3803 50.3283C37.7 50.3283 35.527 48.1076 35.527 45.3718C35.5245 45.3022 35.5078 45.2338 35.4689 45.1081C35.5036 44.8922 35.523 44.6741 35.527 44.4575C35.527 44.1803 35.3069 43.9554 35.0353 43.9554C34.7636 43.9554 34.5436 44.1803 34.5436 44.4575C34.5436 45.7419 33.8731 46.9287 32.7849 47.5708C31.6968 48.2128 30.3563 48.2128 29.2682 47.5708C28.2181 46.9512 27.557 45.8244 27.6447 44.5077L27.6463 42.5722C27.6467 42.1405 27.7774 41.7195 28.0207 41.3672ZM46.4999 57.4207H37.4825C37.2076 57.4207 36.9835 57.6555 36.9835 57.9468V65.0779C36.9835 65.3693 37.2076 65.604 37.4825 65.604H46.4999C46.7747 65.604 46.9989 65.3693 46.9989 65.0779V57.9468C46.9989 57.6555 46.7747 57.4207 46.4999 57.4207ZM45.9015 58.473L46.1031 58.6866L46.0028 64.3457L45.7984 64.5517H38.0836L37.8793 64.3381L37.9815 58.5741L38.1885 58.3681L45.9015 58.473Z" fill="#F8BA04"/>
</svg>
