<svg width="103" height="105" viewBox="0 0 103 105" fill="none" xmlns="http://www.w3.org/2000/svg">
<g clip-path="url(#clip0_276_377)">
<path d="M102.15 52.358C102.15 81.0125 79.6023 104.216 51.8192 104.216C24.036 104.216 1.48828 81.0125 1.48828 52.358C1.48828 23.7036 24.036 0.5 51.8192 0.5C79.6023 0.5 102.15 23.7036 102.15 52.358Z" stroke="#F8BA04"/>
<path d="M44.4845 29.3222C44.4661 29.327 44.4479 29.3327 44.4301 29.3392H30.034C29.7132 29.3392 29.4531 29.5841 29.4531 29.8862V76.9312C29.4531 77.2333 29.7132 77.4783 30.034 77.4783H44.4482C44.5261 77.4935 44.6064 77.4935 44.6842 77.4783H58.9713C59.0492 77.4935 59.1295 77.4935 59.2073 77.4783H73.6034C73.9242 77.4783 74.1843 77.2333 74.1843 76.9312V29.8862C74.1843 29.5841 73.9242 29.3392 73.6034 29.3392H59.2073C59.1423 29.3227 59.0748 29.3169 59.0076 29.3222C58.9892 29.327 58.9711 29.3327 58.9532 29.3392H44.6843C44.6192 29.3227 44.5516 29.3169 44.4845 29.3222ZM30.6149 30.4334H43.9762V76.3843H30.6149V30.4334ZM45.1381 30.4334H58.4993V76.3843H45.1381V30.4334ZM59.6612 30.4334H73.0224V76.3843H59.6612V30.4334ZM33.9916 32.6215C33.783 32.6387 33.6002 32.7598 33.5126 32.9387C33.4249 33.1177 33.4457 33.3272 33.5672 33.4878C33.6887 33.6483 33.8922 33.7352 34.1005 33.7156H40.4907C40.7003 33.7186 40.8955 33.6151 41.0013 33.4446C41.1071 33.274 41.1071 33.0631 41.0013 32.8926C40.8955 32.7221 40.7003 32.6185 40.4907 32.6215H34.1005C34.0643 32.6183 34.0278 32.6183 33.9916 32.6215ZM48.5147 32.6215C48.3061 32.6387 48.1233 32.7598 48.0357 32.9387C47.948 33.1177 47.9688 33.3272 48.0903 33.4878C48.2118 33.6483 48.4153 33.7352 48.6236 33.7156H55.0138C55.2234 33.7186 55.4186 33.6151 55.5244 33.4446C55.6302 33.274 55.6302 33.0631 55.5244 32.8926C55.4186 32.7221 55.2234 32.6185 55.0138 32.6215H48.6236C48.5874 32.6183 48.5509 32.6183 48.5147 32.6215ZM63.0378 32.6215C62.8292 32.6387 62.6465 32.7598 62.5588 32.9387C62.4711 33.1177 62.4919 33.3272 62.6134 33.4878C62.7349 33.6483 62.9384 33.7352 63.1467 33.7156H69.5369C69.7466 33.7186 69.9417 33.6151 70.0475 33.4446C70.1533 33.274 70.1533 33.0631 70.0475 32.8926C69.9417 32.7221 69.7466 32.6185 69.5369 32.6215H63.1467C63.1105 32.6183 63.074 32.6183 63.0378 32.6215ZM33.9916 34.8097C33.783 34.8269 33.6002 34.9479 33.5126 35.1269C33.4249 35.3059 33.4457 35.5154 33.5672 35.6759C33.6887 35.8364 33.8922 35.9234 34.1005 35.9037H40.4907C40.7003 35.9068 40.8955 35.8032 41.0013 35.6327C41.1071 35.4622 41.1071 35.2512 41.0013 35.0807C40.8955 34.9102 40.7003 34.8066 40.4907 34.8097H34.1005C34.0643 34.8065 34.0278 34.8065 33.9916 34.8097ZM48.5147 34.8097C48.3061 34.8269 48.1233 34.9479 48.0357 35.1269C47.948 35.3059 47.9688 35.5154 48.0903 35.6759C48.2118 35.8364 48.4153 35.9234 48.6236 35.9037H55.0138C55.2234 35.9068 55.4186 35.8032 55.5244 35.6327C55.6302 35.4622 55.6302 35.2512 55.5244 35.0807C55.4186 34.9102 55.2234 34.8066 55.0138 34.8097H48.6236C48.5874 34.8065 48.5509 34.8065 48.5147 34.8097ZM63.0378 34.8097C62.8292 34.8269 62.6465 34.9479 62.5588 35.1269C62.4711 35.3059 62.4919 35.5154 62.6134 35.6759C62.7349 35.8364 62.9384 35.9234 63.1467 35.9037H69.5369C69.7466 35.9068 69.9417 35.8032 70.0475 35.6327C70.1533 35.4622 70.1533 35.2512 70.0475 35.0807C69.9417 34.9102 69.7466 34.8066 69.5369 34.8097H63.1467C63.1105 34.8065 63.074 34.8065 63.0378 34.8097ZM33.9916 36.9978C33.6707 37.0261 33.435 37.294 33.4651 37.5961C33.4952 37.8983 33.7796 38.1202 34.1005 38.0919H40.4907C40.6998 38.0942 40.8942 37.9905 40.9995 37.8202C41.1048 37.65 41.1048 37.4397 40.9995 37.2694C40.8942 37.0992 40.6998 36.9955 40.4907 36.9978H34.1005C34.0643 36.9946 34.0278 36.9946 33.9916 36.9978ZM48.5147 36.9978C48.1938 37.0261 47.9581 37.294 47.9882 37.5961C48.0183 37.8983 48.3028 38.1202 48.6236 38.0919H55.0138C55.2229 38.0942 55.4173 37.9905 55.5226 37.8202C55.6279 37.65 55.6279 37.4397 55.5226 37.2694C55.4173 37.0992 55.2229 36.9955 55.0138 36.9978H48.6236C48.5874 36.9946 48.5509 36.9946 48.5147 36.9978ZM63.0378 36.9978C62.7169 37.0261 62.4812 37.294 62.5113 37.5961C62.5414 37.8983 62.8259 38.1202 63.1467 38.0919H69.5369C69.7461 38.0942 69.9404 37.9905 70.0457 37.8202C70.151 37.65 70.151 37.4397 70.0457 37.2694C69.9404 37.0992 69.7461 36.9955 69.5369 36.9978H63.1467C63.1105 36.9946 63.074 36.9946 63.0378 36.9978ZM33.5196 52.3148C32.8779 52.3148 32.3577 52.8046 32.3577 53.4088C32.3577 54.0131 32.8779 54.5029 33.5196 54.5029C34.1612 54.5029 34.6814 54.0131 34.6814 53.4088C34.6814 52.8046 34.1612 52.3148 33.5196 52.3148ZM48.0427 52.3148C47.401 52.3148 46.8808 52.8046 46.8808 53.4088C46.8808 54.0131 47.401 54.5029 48.0427 54.5029C48.6843 54.5029 49.2045 54.0131 49.2045 53.4088C49.2045 52.8046 48.6843 52.3148 48.0427 52.3148ZM62.5658 52.3148C61.9241 52.3148 61.4039 52.8046 61.4039 53.4088C61.4039 54.0131 61.9241 54.5029 62.5658 54.5029C63.2075 54.5029 63.7276 54.0131 63.7276 53.4088C63.7276 52.8046 63.2075 52.3148 62.5658 52.3148ZM33.9916 68.7258C33.6723 68.7559 33.4388 69.023 33.4687 69.3238C33.4987 69.6246 33.7809 69.8462 34.1005 69.8199H40.4907C40.7003 69.8229 40.8955 69.7194 41.0013 69.5489C41.1071 69.3783 41.1071 69.1674 41.0013 68.9969C40.8955 68.8264 40.7003 68.7228 40.4907 68.7258H34.1005C34.0643 68.7226 34.0278 68.7226 33.9916 68.7258ZM48.5147 68.7258C48.1954 68.7559 47.9619 69.023 47.9918 69.3238C48.0218 69.6246 48.304 69.8462 48.6236 69.8199H55.0138C55.2234 69.8229 55.4186 69.7194 55.5244 69.5489C55.6302 69.3783 55.6302 69.1674 55.5244 68.9969C55.4186 68.8264 55.2234 68.7228 55.0138 68.7258H48.6236C48.5874 68.7226 48.5509 68.7226 48.5147 68.7258ZM63.0378 68.7258C62.7185 68.7559 62.485 69.023 62.5149 69.3238C62.5449 69.6246 62.8271 69.8462 63.1467 69.8199H69.5369C69.7466 69.8229 69.9417 69.7194 70.0475 69.5489C70.1533 69.3783 70.1533 69.1674 70.0475 68.9969C69.9417 68.8264 69.7466 68.7228 69.5369 68.7258H63.1467C63.1105 68.7226 63.074 68.7226 63.0378 68.7258ZM33.9916 70.914C33.783 70.9312 33.6003 71.0522 33.5126 71.2312C33.4249 71.4102 33.4458 71.6197 33.5673 71.7802C33.6887 71.9407 33.8922 72.0277 34.1005 72.008H40.4907C40.7003 72.0111 40.8955 71.9075 41.0013 71.737C41.1071 71.5665 41.1071 71.3555 41.0013 71.185C40.8955 71.0145 40.7003 70.9109 40.4907 70.914H34.1005C34.0643 70.9108 34.0278 70.9108 33.9916 70.914ZM48.5147 70.914C48.3062 70.9312 48.1234 71.0522 48.0357 71.2312C47.948 71.4102 47.9689 71.6197 48.0904 71.7802C48.2118 71.9407 48.4153 72.0277 48.6236 72.008H55.0138C55.2234 72.0111 55.4186 71.9075 55.5244 71.737C55.6302 71.5665 55.6302 71.3555 55.5244 71.185C55.4186 71.0145 55.2234 70.9109 55.0138 70.914H48.6236C48.5874 70.9108 48.5509 70.9108 48.5147 70.914ZM63.0378 70.914C62.8293 70.9312 62.6465 71.0522 62.5588 71.2312C62.4711 71.4102 62.492 71.6197 62.6135 71.7802C62.7349 71.9407 62.9384 72.0277 63.1467 72.008H69.5369C69.7466 72.0111 69.9417 71.9075 70.0475 71.737C70.1533 71.5665 70.1533 71.3555 70.0475 71.185C69.9417 71.0145 69.7466 70.9109 69.5369 70.914H63.1467C63.1105 70.9108 63.074 70.9108 63.0378 70.914ZM33.9916 73.1021C33.6707 73.1304 33.435 73.3983 33.4651 73.7004C33.4952 74.0026 33.7796 74.2245 34.1005 74.1962H40.4907C40.6998 74.1985 40.8942 74.0948 40.9995 73.9245C41.1048 73.7543 41.1048 73.544 40.9995 73.3737C40.8942 73.2035 40.6998 73.0998 40.4907 73.1021H34.1005C34.0643 73.0989 34.0278 73.0989 33.9916 73.1021ZM48.5147 73.1021C48.1938 73.1304 47.9581 73.3983 47.9882 73.7004C48.0183 74.0026 48.3028 74.2245 48.6236 74.1962H55.0138C55.2229 74.1985 55.4173 74.0948 55.5226 73.9245C55.6279 73.7543 55.6279 73.544 55.5226 73.3737C55.4173 73.2035 55.2229 73.0998 55.0138 73.1021H48.6236C48.5874 73.0989 48.5509 73.0989 48.5147 73.1021ZM63.0378 73.1021C62.7169 73.1304 62.4812 73.3983 62.5113 73.7004C62.5414 74.0026 62.8259 74.2245 63.1467 74.1962H69.5369C69.7461 74.1985 69.9404 74.0948 70.0457 73.9245C70.151 73.7543 70.151 73.544 70.0457 73.3737C69.9404 73.2035 69.7461 73.0998 69.5369 73.1021H63.1467C63.1105 73.0989 63.074 73.0989 63.0378 73.1021Z" fill="#F8BA04"/>
</g>
<defs>
<clipPath id="clip0_276_377">
<rect width="101.662" height="104.716" fill="white" transform="translate(0.988281)"/>
</clipPath>
</defs>
</svg>
