<svg width="32" height="28" viewBox="0 0 32 28" fill="none" xmlns="http://www.w3.org/2000/svg">
<path d="M30.6667 16.9927H1.33333C0.597331 16.9927 0 16.3207 0 15.4927C0 14.6647 0.597331 13.9927 1.33333 13.9927H30.6667C31.4027 13.9927 32 14.6647 32 15.4927C32 16.3207 31.4027 16.9927 30.6667 16.9927Z" fill="black"/>
<path d="M30.6667 6.3125H1.33333C0.597331 6.3125 0 5.6405 0 4.8125C0 3.9845 0.597331 3.3125 1.33333 3.3125H30.6667C31.4027 3.3125 32 3.9845 32 4.8125C32 5.6405 31.4027 6.3125 30.6667 6.3125Z" fill="black"/>
<path d="M30.6667 27.6729H1.33333C0.597331 27.6729 0 27.0009 0 26.1729C0 25.3448 0.597331 24.6729 1.33333 24.6729H30.6667C31.4027 24.6729 32 25.3448 32 26.1729C32 27.0009 31.4027 27.6729 30.6667 27.6729Z" fill="black"/>
</svg>
