<svg width="24" height="25" viewBox="0 0 24 25" fill="none" xmlns="http://www.w3.org/2000/svg">
<path fill-rule="evenodd" clip-rule="evenodd" d="M12 22.0469C17.5228 22.0469 22 17.5697 22 12.0469C22 6.52402 17.5228 2.04688 12 2.04688C6.47715 2.04688 2 6.52402 2 12.0469C2 17.5697 6.47715 22.0469 12 22.0469ZM13 7.04688C13 6.4946 12.5523 6.04688 12 6.04688C11.4477 6.04688 11 6.4946 11 7.04688V11.6327C11 12.1631 11.2107 12.6718 11.5858 13.0469L13.7929 15.254C14.1834 15.6445 14.8166 15.6445 15.2071 15.254C15.5976 14.8635 15.5976 14.2303 15.2071 13.8398L13 11.6327V7.04688Z" fill="black"/>
</svg>
