<svg width="103" height="105" viewBox="0 0 103 105" fill="none" xmlns="http://www.w3.org/2000/svg">
<g clip-path="url(#clip0_276_364)">
<path d="M101.749 52.2114C101.749 80.7807 79.172 103.919 51.3482 103.919C23.5244 103.919 0.947266 80.7807 0.947266 52.2114C0.947266 23.6421 23.5244 0.503906 51.3482 0.503906C79.172 0.503906 101.749 23.6421 101.749 52.2114Z" stroke="#F8BA04"/>
<path d="M80.1302 60.162L57.0841 49.5596C56.7412 49.4228 56.3296 49.5596 56.1925 49.9016C56.0553 50.2436 56.1925 50.654 56.5354 50.7908L79.5815 61.4617C80.3359 61.8037 80.9533 62.4877 81.2276 63.2402C81.502 63.9926 81.502 64.9502 81.159 65.7027C80.6103 66.8655 79.5129 67.5495 78.2097 67.5495H78.1411H24.367H24.2984C23.0638 67.5495 21.8978 66.7971 21.349 65.7027C21.0061 64.9502 20.9375 64.061 21.2805 63.2402C21.6234 62.4193 22.1721 61.8037 22.9266 61.4617L48.5105 49.628L53.8604 47.1655C57.4957 45.4554 59.0732 41.2144 57.3585 37.5891C56.1925 35.1266 53.7232 33.4849 51.0483 33.4165C50.9797 33.4165 50.9111 33.4165 50.8425 33.4165C48.0303 33.4165 45.4925 35.0582 44.3265 37.5891C44.1893 37.9311 44.3265 38.3415 44.6694 38.4783C44.738 38.5467 44.8752 38.5467 44.9438 38.5467C45.2182 38.5467 45.4239 38.4099 45.5611 38.1363C46.5214 36.0842 48.579 34.7846 50.7739 34.7162C53.0374 34.7162 55.1636 36.0842 56.1239 38.1363C57.4957 41.0776 56.1925 44.5662 53.2431 45.9342L38.4964 52.7745L22.3779 60.162C21.2805 60.7093 20.3888 61.5985 19.9773 62.7613C19.5657 63.9242 19.6343 65.1554 20.1144 66.2499C20.8689 67.8232 22.4465 68.8492 24.2298 68.9176H24.2984H78.2097H78.2783C80.0616 68.9176 81.6391 67.8232 82.3936 66.2499C82.9423 65.1554 82.9423 63.9242 82.5308 62.7613C82.1193 61.5985 81.2276 60.7093 80.1302 60.162Z" fill="#F8BA04"/>
</g>
<defs>
<clipPath id="clip0_276_364">
<rect width="101.802" height="104.415" fill="white" transform="translate(0.447266 0.00390625)"/>
</clipPath>
</defs>
</svg>
