<svg width="103" height="105" viewBox="0 0 103 105" fill="none" xmlns="http://www.w3.org/2000/svg">
<g clip-path="url(#clip0_276_358)">
<path d="M101.911 52.2114C101.911 80.7807 79.3341 103.919 51.5103 103.919C23.6865 103.919 1.10938 80.7807 1.10938 52.2114C1.10938 23.6421 23.6865 0.503906 51.5103 0.503906C79.3341 0.503906 101.911 23.6421 101.911 52.2114Z" stroke="#F8BA04"/>
<path d="M51.5289 29.2402C60.37 29.2402 68.7919 32.2388 75.5392 37.5686C75.9696 37.8302 76.0959 38.475 75.7982 38.8915C75.5006 39.308 74.8718 39.3663 74.5331 39.0328C68.0572 33.9201 59.9914 31.0505 51.5289 31.0505C43.0664 31.0505 35.0006 33.9202 28.5495 39.0111C28.186 39.3663 27.5573 39.308 27.2596 38.8915C26.962 38.475 27.0883 37.8302 27.4878 37.5901C34.2659 32.2388 42.6878 29.2402 51.5289 29.2402ZM51.5289 40.3352C58.1237 40.3352 64.1895 42.4326 68.8368 46.3466C69.2773 46.6164 69.3927 47.2869 69.0698 47.6994C68.7468 48.1124 68.0935 48.1289 67.7873 47.768C63.4268 44.0997 57.7512 42.1457 51.5289 42.1457C45.3067 42.1457 39.631 44.0997 35.3059 47.733C34.9642 48.1286 34.3111 48.112 33.9882 47.6995C33.6651 47.2869 33.7805 46.6164 34.1836 46.3736C38.8683 42.4326 44.9341 40.3352 51.5289 40.3352ZM51.5289 50.8462C55.4945 50.8462 59.2604 52.1588 62.1524 54.548C62.5145 54.8498 62.5779 55.4433 62.2882 55.8207C61.9986 56.1981 61.4294 56.264 61.0687 55.963C58.4941 53.836 55.1077 52.6564 51.5289 52.6564C47.9502 52.6564 44.5637 53.836 41.9903 55.962C41.6284 56.264 41.0592 56.1981 40.7696 55.8207C40.48 55.4433 40.5433 54.8498 40.9065 54.5471C43.7974 52.1588 47.5633 50.8462 51.5289 50.8462ZM51.5289 61.9412C54.4762 61.9412 56.8775 64.4449 56.8775 67.5179C56.8775 70.5908 54.4762 73.0945 51.5289 73.0945C48.5816 73.0945 46.1803 70.5908 46.1803 67.5179C46.1803 64.4449 48.5816 61.9412 51.5289 61.9412ZM51.5289 63.7514C49.5272 63.7514 47.9165 65.4308 47.9165 67.5179C47.9165 69.6049 49.5272 71.2843 51.5289 71.2843C53.5306 71.2843 55.1413 69.6049 55.1413 67.5179C55.1413 65.4308 53.5306 63.7514 51.5289 63.7514Z" fill="#F8BA04"/>
</g>
<defs>
<clipPath id="clip0_276_358">
<rect width="101.802" height="104.415" fill="white" transform="translate(0.609375 0.00390625)"/>
</clipPath>
</defs>
</svg>
